<svg xmlns="http://www.w3.org/2000/svg" xmlns:xlink="http://www.w3.org/1999/xlink" width="1293" height="1048" viewBox="-44 -30 1293 1048" font-family="Helvetica,Arial,sans-serif">
<rect x="-44" y="-30" width="1293" height="1048" fill="#ffffff"/>
<rect x="532.0" y="208.0" width="522.0" height="709.0" rx="10" ry="10" fill="none" stroke="#5a9367" stroke-width="2" opacity="1.0" stroke-dasharray="6,4"/>
<text x="544.0" y="227.0" font-size="13.0" fill="#5a9367" text-anchor="start" font-weight="700">Attested TEE  -  Confidential VM (Intel TDX / AMD SEV-SNP): measured image, secrets unsealed only post-attestation</text>
<rect x="-14.0" y="91.0" width="581.0" height="358.0" rx="10" ry="10" fill="none" stroke="#8a5fb0" stroke-width="2" opacity="1.0" stroke-dasharray="6,4"/>
<text x="-2.0" y="110.0" font-size="13.0" fill="#8a5fb0" text-anchor="start" font-weight="700">Control plane  -  your infra, untrusted for PII: identity, billing, sealed token store</text>
<path d="M202.0,62.0 L202.0,78.0 L202.0,103.0 L202.0,131.0" fill="none" stroke="#2e8b57" stroke-width="1.4"/>
<polygon points="202.0,131.0 198.0,122.0 206.0,122.0" fill="#2e8b57"/>
<text x="202.0" y="90.5" font-size="9" fill="#5b6675" text-anchor="middle" paint-order="stroke" stroke="#ffffff" stroke-width="3" stroke-linejoin="round">visit / subscribe</text>
<path d="M202.0,187.0 L202.0,201.0 L202.0,222.0 L202.2,248.0" fill="none" stroke="#2e8b57" stroke-width="1.4"/>
<polygon points="202.2,248.0 198.2,239.0 206.2,239.0" fill="#2e8b57"/>
<text x="202.0" y="211.5" font-size="9" fill="#5b6675" text-anchor="middle" paint-order="stroke" stroke="#ffffff" stroke-width="3" stroke-linejoin="round">onboard</text>
<path d="M297.0,180.9 L306.0,183.0 L313.0,185.0 L313.0,185.0 L313.0,185.0 L1040.0,242.0 L1040.0,242.0 L1040.0,242.0 L1046.0,244.0 L1057.6,248.0" fill="none" stroke="#2e8b57" stroke-width="1.4"/>
<polygon points="1057.6,248.0 1047.8,248.9 1050.4,241.3" fill="#2e8b57"/>
<text x="676.5" y="213.5" font-size="9" fill="#5b6675" text-anchor="middle" paint-order="stroke" stroke="#ffffff" stroke-width="3" stroke-linejoin="round">checkout</text>
<path d="M247.4,304.0 L273.0,320.0 L312.0,343.0 L347.9,365.0" fill="none" stroke="#3d72b4" stroke-width="1.4" stroke-dasharray="5,4"/>
<polygon points="347.9,365.0 338.1,363.7 342.3,356.9" fill="#3d72b4"/>
<text x="292.5" y="331.5" font-size="9" fill="#5b6675" text-anchor="middle" paint-order="stroke" stroke="#ffffff" stroke-width="3" stroke-linejoin="round">store SEALED refresh token</text>
<path d="M182.0,304.0 L171.0,319.0 L155.0,340.0 L136.4,365.0" fill="none" stroke="#2e8b57" stroke-width="1.4"/>
<polygon points="136.4,365.0 138.5,355.4 145.0,360.2" fill="#2e8b57"/>
<text x="163.0" y="329.5" font-size="9" fill="#5b6675" text-anchor="middle" paint-order="stroke" stroke="#ffffff" stroke-width="3" stroke-linejoin="round">register watch</text>
<path d="M157.5,421.0 L219.0,462.0 L352.0,549.0 L427.6,599.0" fill="none" stroke="#2e8b57" stroke-width="1.4"/>
<polygon points="427.6,599.0 417.9,597.4 422.3,590.7" fill="#2e8b57"/>
<text x="285.5" y="505.5" font-size="9" fill="#5b6675" text-anchor="middle" paint-order="stroke" stroke="#ffffff" stroke-width="3" stroke-linejoin="round">users.watch</text>
<path d="M434.0,70.0 L434.0,85.0 L434.0,106.0 L434.0,131.0" fill="none" stroke="#c17a3a" stroke-width="1.4" stroke-dasharray="5,4"/>
<polygon points="434.0,131.0 430.0,122.0 438.0,122.0" fill="#c17a3a"/>
<text x="434.0" y="95.5" font-size="9" fill="#5b6675" text-anchor="middle" paint-order="stroke" stroke="#ffffff" stroke-width="3" stroke-linejoin="round">expected measurement</text>
<path d="M803.4,248.0 L792.0,245.0 L779.0,242.0 L779.0,242.0 L779.0,242.0 L648.0,211.0 L539.0,184.5" fill="none" stroke="#c17a3a" stroke-width="1.4" stroke-dasharray="5,4"/>
<polygon points="539.0,184.5 548.7,182.8 546.8,190.5" fill="#c17a3a"/>
<text x="779.0" y="242.0" font-size="9" fill="#5b6675" text-anchor="middle" paint-order="stroke" stroke="#ffffff" stroke-width="3" stroke-linejoin="round">hw-signed quote + nonce</text>
<path d="M539.0,170.2 L754.0,193.0 L1237.0,242.0 L1237.0,242.0 L1237.0,242.0 L1237.0,302.0 L1237.0,302.0 L1237.0,302.0 L897.0,424.0 L736.2,482.0" fill="none" stroke="#c17a3a" stroke-width="1.4" stroke-dasharray="5,4"/>
<polygon points="736.2,482.0 743.3,475.2 746.0,482.7" fill="#c17a3a"/>
<text x="1237.0" y="272.0" font-size="9" fill="#5b6675" text-anchor="middle" paint-order="stroke" stroke="#ffffff" stroke-width="3" stroke-linejoin="round">unseal secrets iff hash matches</text>
<path d="M456.8,421.0 L493.0,437.0 L548.0,461.0 L595.4,482.0" fill="none" stroke="#3d72b4" stroke-width="1.4" stroke-dasharray="5,4"/>
<polygon points="595.4,482.0 585.5,482.0 588.8,474.7" fill="#3d72b4"/>
<text x="520.5" y="449.0" font-size="9" fill="#5b6675" text-anchor="middle" paint-order="stroke" stroke="#ffffff" stroke-width="3" stroke-linejoin="round">sealed token (unseal in TEE)</text>
<path d="M297.0,180.9 L306.0,183.0 L313.0,185.0 L313.0,185.0 L313.0,185.0 L779.0,242.0 L779.0,242.0 L779.0,242.0 L788.0,244.0 L803.2,248.0" fill="none" stroke="#c17a3a" stroke-width="1.4" stroke-dasharray="5,4"/>
<polygon points="803.2,248.0 793.5,249.6 795.6,241.8" fill="#c17a3a"/>
<text x="546.0" y="213.5" font-size="9" fill="#5b6675" text-anchor="middle" paint-order="stroke" stroke="#ffffff" stroke-width="3" stroke-linejoin="round">client verifies proof</text>
<path d="M455.0,655.0 L447.0,670.0 L434.0,691.0 L420.3,716.0" fill="none" stroke="#2e8b57" stroke-width="1.4"/>
<polygon points="420.3,716.0 421.1,706.2 428.1,710.0" fill="#2e8b57"/>
<text x="440.5" y="680.5" font-size="9" fill="#5b6675" text-anchor="middle" paint-order="stroke" stroke="#ffffff" stroke-width="3" stroke-linejoin="round">push</text>
<path d="M396.5,716.0 L389.0,691.0 L377.0,653.0 L377.0,653.0 L377.0,653.0 L377.0,601.0 L377.0,601.0 L377.0,601.0 L554.0,427.0 L554.0,427.0 L554.0,427.0 L606.0,354.0 L641.6,304.0" fill="none" stroke="#2e8b57" stroke-width="1.4"/>
<polygon points="641.6,304.0 639.6,313.7 633.1,309.0" fill="#2e8b57"/>
<text x="377.0" y="601.0" font-size="9" fill="#5b6675" text-anchor="middle" paint-order="stroke" stroke="#ffffff" stroke-width="3" stroke-linejoin="round">OIDC push</text>
<path d="M677.5,304.0 L686.0,319.0 L699.0,340.0 L713.6,365.0" fill="none" stroke="#2e8b57" stroke-width="1.4"/>
<polygon points="713.6,365.0 705.6,359.3 712.5,355.2" fill="#2e8b57"/>
<text x="692.5" y="329.5" font-size="9" fill="#5b6675" text-anchor="middle" paint-order="stroke" stroke="#ffffff" stroke-width="3" stroke-linejoin="round">wake (user)</text>
<path d="M713.1,421.0 L704.0,436.0 L691.0,457.0 L675.7,482.0" fill="none" stroke="#2e8b57" stroke-width="1.4"/>
<polygon points="675.7,482.0 677.0,472.2 683.8,476.4" fill="#2e8b57"/>
<text x="697.5" y="446.5" font-size="9" fill="#5b6675" text-anchor="middle" paint-order="stroke" stroke="#ffffff" stroke-width="3" stroke-linejoin="round">fetch mail</text>
<path d="M613.6,538.0 L588.0,554.0 L550.0,577.0 L514.8,599.0" fill="none" stroke="#2e8b57" stroke-width="1.4"/>
<polygon points="514.8,599.0 520.3,590.8 524.6,597.6" fill="#2e8b57"/>
<text x="569.0" y="565.5" font-size="9" fill="#5b6675" text-anchor="middle" paint-order="stroke" stroke="#ffffff" stroke-width="3" stroke-linejoin="round">RAW email (OAuth, in-enclave)</text>
<path d="M688.8,538.0 L705.0,553.0 L731.0,576.0 L756.3,599.0" fill="none" stroke="#2e8b57" stroke-width="1.4"/>
<polygon points="756.3,599.0 746.9,595.9 752.3,590.0" fill="#2e8b57"/>
<text x="718.0" y="564.5" font-size="9" fill="#5b6675" text-anchor="middle" paint-order="stroke" stroke="#ffffff" stroke-width="3" stroke-linejoin="round">raw text</text>
<path d="M878.3,538.0 L863.0,553.0 L840.0,576.0 L816.1,599.0" fill="none" stroke="#3d72b4" stroke-width="1.4" stroke-dasharray="5,4"/>
<polygon points="816.1,599.0 819.8,589.9 825.4,595.6" fill="#3d72b4"/>
<text x="851.5" y="564.5" font-size="9" fill="#5b6675" text-anchor="middle" paint-order="stroke" stroke="#ffffff" stroke-width="3" stroke-linejoin="round">user identity rules</text>
<path d="M787.0,655.0 L787.0,669.0 L787.0,690.0 L787.2,716.0" fill="none" stroke="#1e7a3a" stroke-width="2"/>
<polygon points="787.2,716.0 783.2,707.0 791.2,707.0" fill="#1e7a3a"/>
<text x="787.0" y="679.5" font-size="9" fill="#5b6675" text-anchor="middle" paint-order="stroke" stroke="#ffffff" stroke-width="3" stroke-linejoin="round">masked</text>
<path d="M856.3,772.0 L898.0,789.0 L972.0,815.0 L1037.0,836.1" fill="none" stroke="#1e7a3a" stroke-width="2"/>
<polygon points="1037.0,836.1 1027.2,837.1 1029.7,829.5" fill="#1e7a3a"/>
<text x="935.0" y="802.0" font-size="9" fill="#5b6675" text-anchor="middle" paint-order="stroke" stroke="#ffffff" stroke-width="3" stroke-linejoin="round">MASKED text only</text>
<path d="M1044.6,833.0 L1005.0,817.0 L935.0,792.0 L873.5,772.0" fill="none" stroke="#2e8b57" stroke-width="1.4"/>
<polygon points="873.5,772.0 883.3,771.0 880.9,778.6" fill="#2e8b57"/>
<text x="970.0" y="804.5" font-size="9" fill="#5b6675" text-anchor="middle" paint-order="stroke" stroke="#ffffff" stroke-width="3" stroke-linejoin="round">masked reply -&gt; restore</text>
<path d="M772.8,772.0 L765.0,787.0 L754.0,808.0 L740.8,833.0" fill="none" stroke="#2e8b57" stroke-width="1.4"/>
<polygon points="740.8,833.0 741.5,823.2 748.5,826.9" fill="#2e8b57"/>
<text x="759.5" y="797.5" font-size="9" fill="#5b6675" text-anchor="middle" paint-order="stroke" stroke="#ffffff" stroke-width="3" stroke-linejoin="round">restored payload</text>
<path d="M695.6,833.0 L651.0,792.0 L557.0,707.0 L500.4,655.0" fill="none" stroke="#2e8b57" stroke-width="1.4"/>
<polygon points="500.4,655.0 509.8,658.1 504.4,664.0" fill="#2e8b57"/>
<text x="604.0" y="749.5" font-size="9" fill="#5b6675" text-anchor="middle" paint-order="stroke" stroke="#ffffff" stroke-width="3" stroke-linejoin="round">write draft / event</text>
<path d="M726.0,889.0 L726.0,903.0 L726.0,925.0 L726.0,950.0" fill="none" stroke="#2e8b57" stroke-width="1.4"/>
<polygon points="726.0,950.0 722.0,941.0 730.0,941.0" fill="#2e8b57"/>
<text x="726.0" y="914.0" font-size="9" fill="#5b6675" text-anchor="middle" paint-order="stroke" stroke="#ffffff" stroke-width="3" stroke-linejoin="round">notify</text>
<rect x="127.0" y="8.0" width="150.0" height="52.0" rx="26.0" ry="26.0" fill="#2f7dc4" stroke="#1c4f80" stroke-width="1" opacity="1.0"/>
<text x="202.0" y="31.0" font-size="11.0" fill="#ffffff" text-anchor="middle">End user</text>
<text x="202.0" y="44.7" font-size="11.0" fill="#ffffff" text-anchor="middle">(browser)</text>
<rect x="395.0" y="601.0" width="150.0" height="52.0" rx="26.0" ry="26.0" fill="#2f7dc4" stroke="#1c4f80" stroke-width="1" opacity="1.0"/>
<text x="470.0" y="624.0" font-size="11.0" fill="#ffffff" text-anchor="middle">Gmail + Calendar</text>
<text x="470.0" y="637.7" font-size="11.0" fill="#ffffff" text-anchor="middle">(user mailbox)</text>
<rect x="330.0" y="718.0" width="150.0" height="52.0" rx="26.0" ry="26.0" fill="#2f7dc4" stroke="#1c4f80" stroke-width="1" opacity="1.0"/>
<text x="405.0" y="741.0" font-size="11.0" fill="#ffffff" text-anchor="middle">Google Pub/Sub</text>
<text x="405.0" y="754.7" font-size="11.0" fill="#ffffff" text-anchor="middle">watch push</text>
<rect x="1039.0" y="835.0" width="150.0" height="52.0" rx="10" ry="10" fill="#f6c9c0" stroke="#c0392b" stroke-width="1" opacity="1.0"/>
<text x="1114.0" y="858.0" font-size="11.0" fill="#5a1a12" text-anchor="middle" font-weight="700">Frontier LLM</text>
<text x="1114.0" y="871.7" font-size="11.0" fill="#5a1a12" text-anchor="middle" font-weight="700">(UNTRUSTED)</text>
<rect x="651.0" y="952.0" width="150.0" height="36.0" rx="18.0" ry="18.0" fill="#2f7dc4" stroke="#1c4f80" stroke-width="1" opacity="1.0"/>
<text x="726.0" y="973.9" font-size="11.0" fill="#ffffff" text-anchor="middle">Telegram / notify</text>
<rect x="1059.0" y="250.0" width="160.0" height="52.0" rx="26.0" ry="26.0" fill="#2f7dc4" stroke="#1c4f80" stroke-width="1" opacity="1.0"/>
<text x="1139.0" y="273.0" font-size="11.0" fill="#ffffff" text-anchor="middle">Polar.sh / Stripe</text>
<text x="1139.0" y="286.7" font-size="11.0" fill="#ffffff" text-anchor="middle">subscription billing</text>
<path d="M351.0,-0.0 L503.0,-0.0 L517.0,14.0 L517.0,68.0 L351.0,68.0 Z" fill="#fdf3cf" stroke="#c9a227" stroke-width="1" opacity="1.0" stroke-dasharray="4,3"/>
<path d="M503.0,-0.0 L503.0,14.0 L517.0,14.0" fill="none" stroke="#c9a227" stroke-width="1" opacity="1.0"/>
<text x="434.0" y="24.1" font-size="11.0" fill="#5b4a00" text-anchor="middle">Open-source repo</text>
<text x="434.0" y="37.9" font-size="11.0" fill="#5b4a00" text-anchor="middle">reproducible build -&gt;</text>
<text x="434.0" y="51.6" font-size="11.0" fill="#5b4a00" text-anchor="middle">published image hash</text>
<rect x="109.0" y="133.0" width="186.0" height="52.0" rx="10" ry="10" fill="#e6d6f2" stroke="#8a5fb0" stroke-width="1" opacity="1.0"/>
<text x="202.0" y="156.0" font-size="11.0" fill="#3d2757" text-anchor="middle">Landing site + dashboard</text>
<text x="202.0" y="169.7" font-size="11.0" fill="#3d2757" text-anchor="middle">shows attestation proof</text>
<rect x="73.0" y="250.0" width="259.0" height="52.0" rx="10" ry="10" fill="#e6d6f2" stroke="#8a5fb0" stroke-width="1" opacity="1.0"/>
<text x="202.5" y="273.0" font-size="11.0" fill="#3d2757" text-anchor="middle">Sign in with Google</text>
<text x="202.5" y="286.7" font-size="11.0" fill="#3d2757" text-anchor="middle">OAuth consent (login + Gmail scope)</text>
<path d="M251.0,374.0 C251.0,365.0 536.0,365.0 536.0,374.0 L536.0,412.0 C536.0,421.0 251.0,421.0 251.0,412.0 Z" fill="#e6ecf3" stroke="#8493a4" stroke-width="1" opacity="1.0"/>
<path d="M251.0,374.0 C251.0,383.0 536.0,383.0 536.0,374.0" fill="none" stroke="#8493a4" stroke-width="1" opacity="1.0"/>
<text x="393.5" y="390.0" font-size="11.0" fill="#1b2733" text-anchor="middle">Account store</text>
<text x="393.5" y="403.7" font-size="11.0" fill="#1b2733" text-anchor="middle">identity + plan + sealed refresh tokens</text>
<rect x="16.0" y="367.0" width="199.0" height="52.0" rx="10" ry="10" fill="#e6d6f2" stroke="#8a5fb0" stroke-width="1" opacity="1.0"/>
<text x="115.5" y="390.0" font-size="11.0" fill="#3d2757" text-anchor="middle">watch_register (per user)</text>
<text x="115.5" y="403.7" font-size="11.0" fill="#3d2757" text-anchor="middle">weekly users.watch renewal</text>
<rect x="331.0" y="133.0" width="206.0" height="52.0" rx="10" ry="10" fill="#e6d6f2" stroke="#8a5fb0" stroke-width="1" opacity="1.0"/>
<text x="434.0" y="156.0" font-size="11.0" fill="#3d2757" text-anchor="middle">KMS / release service</text>
<text x="434.0" y="169.7" font-size="11.0" fill="#3d2757" text-anchor="middle">unseal secrets IFF attested</text>
<rect x="797.0" y="250.0" width="226.0" height="52.0" rx="10" ry="10" fill="#cfe6cf" stroke="#5a9367" stroke-width="1" opacity="1.0"/>
<text x="910.0" y="273.0" font-size="11.0" fill="#1e3a24" text-anchor="middle">Attestation agent</text>
<text x="910.0" y="286.7" font-size="11.0" fill="#1e3a24" text-anchor="middle">hw-signed measurement -&gt; quote</text>
<rect x="562.0" y="250.0" width="199.0" height="52.0" rx="10" ry="10" fill="#cfe6cf" stroke="#5a9367" stroke-width="1" opacity="1.0"/>
<text x="661.5" y="273.0" font-size="11.0" fill="#1e3a24" text-anchor="middle">webhook receiver</text>
<text x="661.5" y="286.7" font-size="11.0" fill="#1e3a24" text-anchor="middle">verify OIDC, route by user</text>
<rect x="647.0" y="367.0" width="166.0" height="52.0" rx="10" ry="10" fill="#cfe6cf" stroke="#5a9367" stroke-width="1" opacity="1.0"/>
<text x="730.0" y="390.0" font-size="11.0" fill="#1e3a24" text-anchor="middle">daemon (multi-tenant)</text>
<text x="730.0" y="403.7" font-size="11.0" fill="#1e3a24" text-anchor="middle">per-user FIFO / queue</text>
<rect x="562.0" y="484.0" width="193.0" height="52.0" rx="10" ry="10" fill="#cfe6cf" stroke="#5a9367" stroke-width="1" opacity="1.0"/>
<text x="658.5" y="507.0" font-size="11.0" fill="#1e3a24" text-anchor="middle">OAuth token custody</text>
<text x="658.5" y="520.7" font-size="11.0" fill="#1e3a24" text-anchor="middle">fetch RAW mail in-enclave</text>
<path d="M791.0,491.0 C791.0,482.0 1023.0,482.0 1023.0,491.0 L1023.0,529.0 C1023.0,538.0 791.0,538.0 791.0,529.0 Z" fill="#e6ecf3" stroke="#8493a4" stroke-width="1" opacity="1.0"/>
<path d="M791.0,491.0 C791.0,500.0 1023.0,500.0 1023.0,491.0" fill="none" stroke="#8493a4" stroke-width="1" opacity="1.0"/>
<text x="907.0" y="507.0" font-size="11.0" fill="#1b2733" text-anchor="middle">per-user config</text>
<text x="907.0" y="520.7" font-size="11.0" fill="#1b2733" text-anchor="middle">USER_FIRST/LAST, aliases, prefs</text>
<rect x="694.0" y="601.0" width="186.0" height="52.0" rx="10" ry="10" fill="#cfe6cf" stroke="#5a9367" stroke-width="1" opacity="1.0"/>
<text x="787.0" y="624.0" font-size="11.0" fill="#1e3a24" text-anchor="middle">pseudonymizer (per user)</text>
<text x="787.0" y="637.7" font-size="11.0" fill="#1e3a24" text-anchor="middle">Presidio PII masking</text>
<rect x="698.0" y="718.0" width="179.0" height="52.0" rx="10" ry="10" fill="#cfe6cf" stroke="#5a9367" stroke-width="1" opacity="1.0"/>
<text x="787.5" y="741.0" font-size="11.0" fill="#1e3a24" text-anchor="middle">llm_client.complete()</text>
<text x="787.5" y="754.7" font-size="11.0" fill="#1e3a24" text-anchor="middle">mask -&gt; call -&gt; restore</text>
<rect x="623.0" y="835.0" width="206.0" height="52.0" rx="10" ry="10" fill="#cfe6cf" stroke="#5a9367" stroke-width="1" opacity="1.0"/>
<text x="726.0" y="858.0" font-size="11.0" fill="#1e3a24" text-anchor="middle">draft + calendar writer</text>
<text x="726.0" y="871.7" font-size="11.0" fill="#1e3a24" text-anchor="middle">create_draft / create_event</text>
</svg>